<?xml version="1.0" encoding="iso-8859-1"?>
<!-- Generator: Adobe Illustrator 19.0.0, SVG Export Plug-In . SVG Version: 6.00 Build 0)  -->
<svg xmlns="http://www.w3.org/2000/svg" xmlns:xlink="http://www.w3.org/1999/xlink" version="1.1" id="Layer_1" x="0px" y="0px" viewBox="0 0 502 502" style="enable-background:new 0 0 502 502;" xml:space="preserve" width="512" height="512">
<g>
	<g>
		<circle style="fill:#4D4D4D;" cx="437.518" cy="380.597" r="37.574"/>
		<circle style="fill:#4D4D4D;" cx="130.352" cy="380.597" r="37.574"/>
		<polygon style="fill:#CCCCCC;" points="104.509,304.51 79.611,83.763 42.037,83.763 71.173,342.084 108.747,342.084 492,342.084     492,304.51   "/>
	</g>
	<g>
		<path d="M10,73.829c-5.523,0-10,4.477-10,10s4.477,10,10,10h23.109l28.127,249.375c0.57,5.057,4.848,8.879,9.937,8.879h21.121    c-5.972,7.951-9.516,17.826-9.516,28.513c0,26.232,21.341,47.574,47.574,47.574s47.574-21.341,47.574-47.574    c0-10.688-3.544-20.562-9.516-28.513H399.46c-5.972,7.951-9.516,17.826-9.516,28.513c0,26.232,21.341,47.574,47.573,47.574    s47.574-21.341,47.574-47.574c0-10.688-3.544-20.562-9.516-28.513H492c5.522,0,10-4.477,10-10V314.81v-10.3v-92.007    c0-5.523-4.478-10-10-10s-10,4.477-10,10v82.007H113.444l-12.642-112.085h51.583c5.523,0,10-4.477,10-10v-34.458    c0-5.523-4.477-10-10-10s-10,4.477-10,10v24.458H98.546l-8.999-79.782c-0.57-5.057-4.848-8.813-9.937-8.813H10z M130.352,408.171    c-15.204,0-27.574-12.37-27.574-27.574s12.37-27.574,27.574-27.574s27.574,12.37,27.574,27.574S145.556,408.171,130.352,408.171z     M437.518,408.171c-15.204,0-27.573-12.37-27.573-27.574s12.369-27.574,27.573-27.574s27.574,12.37,27.574,27.574    S452.722,408.171,437.518,408.171z M70.675,93.763l23.897,211.867c0.57,5.057,4.848,8.879,9.937,8.879H482v0.3v17.274H80.108    L53.235,93.763H70.675z"/>
		<path d="M152.385,115.967c5.523,0,10-4.477,10-10v-7.372c0-5.523-4.477-10-10-10s-10,4.477-10,10v7.372    C142.385,111.49,146.862,115.967,152.385,115.967z"/>
	</g>
</g>















</svg>
